<svg width="60" height="60" viewBox="0 0 60 60" fill="none" xmlns="http://www.w3.org/2000/svg">
<path d="M31.875 31.27L53.125 22.77V36.9022C51.8622 36.0937 50.3607 35.625 48.75 35.625C44.2628 35.625 40.625 39.2627 40.625 43.75C40.625 48.2372 44.2628 51.875 48.75 51.875C53.2372 51.875 56.875 48.2372 56.875 43.75V19.8656C56.875 17.0085 56.875 14.6124 56.674 12.7033C56.6455 12.4335 56.612 12.1652 56.575 11.9149C56.3812 10.6107 56.039 9.39392 55.3785 8.37787C55.0482 7.86985 54.6383 7.41202 54.1278 7.01847C54.032 6.9447 53.9325 6.87318 53.8298 6.804L53.809 6.7902C52.041 5.6135 50.0532 5.69765 48.0057 6.21943C46.0255 6.72403 43.5705 7.75163 40.56 9.01173L35.325 11.2029C33.9138 11.7934 32.7182 12.2938 31.78 12.812C30.7815 13.3634 29.9215 14.0137 29.2765 14.9828C28.6317 15.9519 28.3637 16.9962 28.2407 18.1301C28.125 19.1958 28.125 20.4918 28.125 22.0215V41.9023C26.862 41.0938 25.3607 40.625 23.75 40.625C19.2627 40.625 15.625 44.2628 15.625 48.75C15.625 53.2373 19.2627 56.875 23.75 56.875C28.2372 56.875 31.875 53.2373 31.875 48.75V31.27Z" fill="#1C274C"/>
<path opacity="0.5" d="M19.375 5C19.375 3.96448 18.5355 3.125 17.5 3.125C16.4645 3.125 15.625 3.96448 15.625 5V19.4023C14.3621 18.5938 12.8608 18.125 11.25 18.125C6.76268 18.125 3.125 21.7627 3.125 26.25C3.125 30.7372 6.76268 34.375 11.25 34.375C15.7373 34.375 19.375 30.7372 19.375 26.25V12.5112C21.1213 13.7728 23.1989 14.375 25 14.375C26.0355 14.375 26.875 13.5355 26.875 12.5C26.875 11.4645 26.0355 10.625 25 10.625C23.8641 10.625 22.4158 10.1847 21.279 9.24592C20.196 8.35152 19.375 6.99463 19.375 5Z" fill="#1C274C"/>
</svg>
